<?xml version="1.0" standalone="no"?>
<!DOCTYPE svg PUBLIC "-//W3C//DTD SVG 20010904//EN"
 "http://www.w3.org/TR/2001/REC-SVG-20010904/DTD/svg10.dtd">
<svg version="1.0" xmlns="http://www.w3.org/2000/svg"
 width="512.000000pt" height="512.000000pt" viewBox="0 0 512.000000 512.000000"
 preserveAspectRatio="xMidYMid meet">
<metadata>
Created by potrace 1.15, written by Peter Selinger 2001-2017
</metadata>
<g transform="translate(0.000000,512.000000) scale(0.100000,-0.100000)"
fill="#000000" stroke="none">
<path d="M735 4680 c-3 -5 -14 -10 -24 -10 -38 0 -148 -67 -206 -125 -58 -58
-105 -138 -134 -226 -15 -47 -16 -3645 -1 -3654 5 -3 10 -15 10 -26 0 -10 4
-27 9 -37 5 -9 19 -38 31 -64 13 -26 31 -55 41 -64 11 -10 19 -21 19 -26 0
-12 16 -28 60 -58 19 -13 37 -27 40 -30 10 -11 92 -50 106 -50 8 0 14 -4 14
-10 0 -5 20 -10 44 -10 25 0 48 -5 51 -10 9 -14 3511 -14 3520 0 3 6 26 10 50
10 24 0 47 5 50 10 3 6 17 10 31 10 13 0 24 5 24 10 0 6 9 10 20 10 11 0 20 4
20 8 0 5 12 15 27 23 36 18 124 106 142 142 8 15 18 27 23 27 4 0 8 7 8 15 0
8 5 24 10 35 6 11 15 29 20 40 6 11 10 38 10 59 0 22 4 43 10 46 7 4 10 603
10 1765 0 1162 -3 1761 -10 1765 -6 3 -10 21 -10 40 0 19 -4 37 -10 40 -5 3
-10 14 -10 25 0 23 -38 96 -70 135 -58 69 -134 135 -155 135 -8 0 -15 5 -15
10 0 6 -9 10 -20 10 -11 0 -20 5 -20 10 0 6 -15 10 -34 10 -19 0 -38 5 -41 10
-4 7 -622 10 -1820 10 -1198 0 -1816 -3 -1820 -10z m3666 -118 c63 -31 127
-97 156 -158 l23 -52 0 -1766 c0 -1918 3 -1802 -55 -1886 -32 -46 -78 -83
-137 -110 -42 -19 -86 -20 -1829 -20 l-1786 0 -61 30 c-70 36 -116 83 -148
155 l-22 50 -4 1770 c-3 1684 -2 1772 15 1810 42 95 108 157 197 188 40 15
226 16 1825 14 l1780 -2 46 -23z"/>
<path d="M2995 4110 c-38 -5 -150 -23 -247 -40 l-178 -32 -222 32 c-381 57
-511 44 -620 -58 -96 -89 -128 -201 -128 -449 0 -252 35 -456 133 -783 l35
-115 -5 -200 c-11 -398 48 -1040 119 -1309 32 -119 90 -176 144 -141 36 23 66
95 113 270 57 209 96 405 126 634 33 241 38 262 78 308 41 47 99 73 165 73 61
0 103 -15 150 -55 49 -41 69 -89 76 -185 18 -242 102 -582 202 -816 56 -133
99 -211 124 -224 29 -15 65 -12 83 8 56 61 120 405 173 932 8 80 17 269 20
420 l5 275 35 78 c49 111 90 236 114 354 42 210 50 570 15 721 -33 142 -110
240 -221 281 -64 25 -189 33 -289 21z m292 -114 c62 -34 97 -81 125 -168 17
-51 22 -98 26 -246 8 -323 -27 -543 -124 -774 l-47 -113 -7 -275 c-10 -349
-33 -603 -86 -930 -28 -177 -72 -370 -83 -370 -5 0 -29 44 -54 98 -104 221
-185 536 -217 838 -19 171 -64 245 -187 301 -39 18 -70 24 -118 24 -175 0
-294 -109 -310 -286 -27 -300 -130 -800 -194 -947 l-19 -43 -16 37 c-20 45
-59 244 -80 403 -35 268 -49 484 -51 820 l-3 340 -45 155 c-132 452 -156 845
-63 1028 69 136 196 159 583 102 112 -16 223 -30 245 -30 32 0 268 36 418 64
14 2 77 3 140 2 106 -1 119 -4 167 -30z"/>
</g>
</svg>
