<?xml version="1.0" standalone="no"?>
<!DOCTYPE svg PUBLIC "-//W3C//DTD SVG 20010904//EN"
 "http://www.w3.org/TR/2001/REC-SVG-20010904/DTD/svg10.dtd">
<svg version="1.0" xmlns="http://www.w3.org/2000/svg"
 width="512.000000pt" height="512.000000pt" viewBox="0 0 512.000000 512.000000"
 preserveAspectRatio="xMidYMid meet">
<metadata>
Created by potrace 1.15, written by Peter Selinger 2001-2017
</metadata>
<g transform="translate(0.000000,512.000000) scale(0.100000,-0.100000)"
fill="#000000" stroke="none">
<path d="M2255 5000 c-3 -5 -35 -10 -70 -10 -35 0 -67 -4 -70 -10 -3 -5 -26
-10 -50 -10 -24 0 -47 -4 -50 -10 -3 -5 -21 -10 -40 -10 -19 0 -37 -4 -40 -10
-3 -5 -21 -10 -40 -10 -19 0 -37 -4 -40 -10 -3 -5 -17 -10 -30 -10 -13 0 -27
-4 -30 -10 -3 -5 -17 -10 -30 -10 -13 0 -27 -4 -30 -10 -3 -5 -15 -10 -25 -10
-11 0 -35 -9 -55 -20 -20 -11 -41 -20 -48 -20 -12 0 -297 -139 -307 -150 -3
-3 -15 -11 -27 -17 -56 -32 -68 -39 -87 -55 -11 -10 -24 -18 -28 -18 -5 0 -18
-9 -30 -20 -12 -11 -28 -20 -35 -20 -7 0 -13 -4 -13 -8 0 -4 -13 -15 -28 -24
-16 -10 -51 -38 -78 -63 -27 -24 -53 -45 -57 -45 -12 0 -269 -260 -297 -300
-13 -19 -32 -42 -42 -51 -10 -9 -18 -20 -18 -25 0 -5 -14 -23 -30 -41 -17 -18
-30 -36 -30 -40 0 -4 -14 -24 -30 -43 -16 -19 -30 -41 -30 -47 0 -7 -4 -13
-10 -13 -5 0 -10 -6 -10 -13 0 -7 -9 -23 -20 -35 -11 -12 -20 -28 -20 -36 0
-8 -3 -16 -8 -18 -10 -4 -152 -289 -152 -305 0 -7 -9 -28 -20 -48 -11 -20 -20
-42 -20 -50 0 -9 -4 -23 -9 -33 -15 -30 -51 -149 -51 -170 0 -12 -4 -23 -9
-26 -5 -3 -11 -23 -14 -43 -3 -21 -11 -63 -17 -93 -6 -30 -14 -82 -17 -115 -2
-33 -9 -64 -14 -69 -13 -14 -12 -603 1 -611 6 -3 10 -35 10 -70 0 -35 5 -67
10 -70 6 -3 10 -26 10 -50 0 -24 4 -47 10 -50 6 -3 10 -20 10 -37 0 -31 15
-87 31 -120 5 -10 9 -27 9 -37 0 -11 5 -23 10 -26 5 -3 10 -17 10 -30 0 -13 5
-27 10 -30 6 -3 10 -17 10 -30 0 -13 5 -27 10 -30 6 -3 10 -14 10 -24 0 -10
14 -47 31 -82 18 -35 35 -73 39 -84 27 -66 36 -85 42 -85 5 0 8 -9 8 -20 0
-11 4 -20 9 -20 4 0 23 -30 42 -68 19 -37 42 -76 51 -86 10 -11 18 -24 18 -28
0 -5 9 -18 20 -30 11 -12 20 -28 20 -35 0 -7 4 -13 8 -13 4 0 16 -13 25 -30
10 -16 23 -35 30 -42 7 -7 24 -29 37 -48 63 -90 288 -314 411 -410 24 -19 46
-38 47 -42 2 -4 8 -8 13 -8 7 0 60 -37 119 -83 8 -7 36 -23 63 -36 26 -13 47
-28 47 -33 0 -4 9 -8 19 -8 11 0 21 -3 23 -8 3 -7 233 -122 288 -144 14 -6 33
-14 42 -19 10 -5 27 -9 37 -9 11 0 23 -4 26 -10 3 -5 17 -10 30 -10 13 0 27
-4 30 -10 3 -5 17 -10 30 -10 13 0 27 -4 30 -10 3 -5 17 -10 30 -10 13 0 27
-4 30 -10 3 -5 21 -10 39 -10 17 0 38 -6 44 -12 19 -19 1135 -19 1153 -1 7 7
28 13 45 13 18 0 36 5 39 10 3 5 21 10 40 10 19 0 37 5 40 10 3 6 17 10 30 10
13 0 27 5 30 10 3 6 15 10 25 10 11 0 35 9 55 20 20 11 42 20 50 20 8 0 30 9
50 20 20 11 44 20 55 20 11 0 20 5 20 10 0 6 9 10 20 10 11 0 20 5 20 10 0 6
9 10 20 10 11 0 20 5 20 10 0 6 9 10 20 10 11 0 20 5 20 10 0 6 9 10 20 10 11
0 20 4 20 9 0 5 8 11 18 14 21 7 71 37 90 54 7 7 30 20 50 30 20 9 39 20 42
23 3 3 21 17 40 30 19 13 37 27 40 30 3 3 21 17 40 30 19 13 53 41 75 62 22
21 43 38 48 38 10 0 226 218 260 263 16 21 38 47 50 60 13 12 33 38 47 57 13
19 27 37 30 40 13 10 110 159 110 169 0 5 3 11 8 13 4 1 18 24 31 51 13 26 28
47 33 47 4 0 8 9 8 20 0 11 5 20 10 20 6 0 10 6 10 14 0 8 8 31 19 53 10 21
33 67 50 102 17 35 31 70 31 76 0 7 8 30 19 52 24 49 61 165 61 191 0 12 5 24
10 27 6 3 10 21 10 40 0 19 4 36 9 39 9 6 17 47 27 141 3 28 10 54 15 59 5 6
9 47 9 92 0 46 5 86 10 89 14 8 14 402 0 410 -5 3 -10 39 -10 80 0 41 -4 77
-10 80 -5 3 -10 30 -10 60 0 30 -4 57 -10 60 -5 3 -10 26 -10 50 0 24 -4 47
-10 50 -5 3 -10 21 -10 40 0 19 -4 37 -10 40 -6 3 -10 17 -10 30 0 13 -4 27
-10 30 -5 3 -10 17 -10 30 0 13 -4 27 -10 30 -5 3 -10 17 -10 30 0 13 -4 27
-10 30 -5 3 -10 15 -10 26 0 10 -4 27 -9 37 -5 9 -13 28 -19 42 -22 55 -137
285 -144 288 -5 2 -8 12 -8 23 0 10 -4 19 -10 19 -5 0 -10 5 -10 10 0 12 -95
155 -122 184 -10 11 -18 25 -18 32 0 7 -4 14 -8 16 -4 2 -23 23 -42 47 -99
127 -318 346 -410 411 -19 13 -41 30 -48 37 -7 7 -26 20 -42 30 -17 9 -30 21
-30 25 0 4 -6 8 -13 8 -7 0 -23 9 -35 20 -12 11 -25 20 -30 20 -4 0 -17 8 -28
18 -17 15 -69 45 -131 76 -13 6 -23 14 -23 19 0 4 -9 7 -20 7 -11 0 -20 5 -20
10 0 6 -9 10 -20 10 -11 0 -20 5 -20 10 0 6 -9 10 -20 10 -11 0 -20 5 -20 10
0 6 -9 10 -20 10 -11 0 -20 5 -20 10 0 6 -9 10 -20 10 -11 0 -35 9 -55 20 -20
11 -44 20 -55 20 -10 0 -22 5 -25 10 -3 6 -17 10 -30 10 -13 0 -27 5 -30 10
-3 6 -17 10 -30 10 -13 0 -27 5 -30 10 -3 6 -17 10 -30 10 -13 0 -27 5 -30 10
-3 6 -21 10 -40 10 -19 0 -37 5 -40 10 -3 6 -21 10 -40 10 -19 0 -37 5 -40 10
-3 6 -26 10 -50 10 -24 0 -47 5 -50 10 -3 6 -35 10 -70 10 -35 0 -67 5 -70 10
-4 6 -115 10 -300 10 -185 0 -296 -4 -300 -10z m650 -115 c575 -88 1114 -394
1474 -838 217 -267 386 -610 464 -942 71 -299 77 -664 16 -970 -198 -990 -999
-1738 -2002 -1870 -153 -20 -441 -20 -594 0 -993 131 -1793 868 -1996 1840
-41 193 -50 306 -44 544 5 222 16 307 62 492 116 459 380 887 737 1194 370
318 809 508 1306 565 116 13 450 5 577 -15z"/>
<path d="M2995 4339 c-33 -5 -94 -15 -135 -23 -41 -8 -125 -22 -186 -32 -120
-18 -133 -17 -524 42 -72 10 -150 14 -245 11 -172 -5 -231 -24 -310 -102 -93
-91 -131 -206 -141 -425 -14 -291 31 -585 153 -994 l35 -120 2 -390 c3 -417
12 -571 52 -896 57 -461 116 -640 210 -640 28 0 39 7 64 42 16 22 30 46 30 52
0 6 7 23 14 39 16 30 63 193 95 327 51 214 91 448 117 690 18 160 33 207 83
263 48 53 112 80 191 81 81 1 140 -25 197 -86 48 -53 57 -79 73 -218 34 -282
88 -526 170 -770 66 -193 130 -327 183 -384 64 -68 113 -39 152 89 25 82 78
331 90 420 4 28 13 88 21 135 38 237 66 588 71 909 l6 324 37 81 c49 105 104
276 129 401 41 205 54 600 26 790 -32 214 -139 350 -303 384 -61 13 -268 13
-357 0z m391 -106 c68 -36 102 -71 133 -136 42 -90 52 -151 58 -342 12 -390
-42 -700 -173 -984 l-34 -74 0 -226 c0 -410 -51 -932 -130 -1331 -40 -198 -57
-255 -75 -240 -18 15 -94 190 -138 320 -79 229 -145 528 -168 760 -14 137 -37
198 -103 268 -69 73 -147 106 -256 106 -109 0 -187 -33 -256 -106 -59 -63 -81
-115 -93 -219 -44 -369 -100 -679 -167 -924 -30 -110 -73 -225 -83 -225 -26 0
-87 304 -121 597 -37 327 -43 436 -45 838 -3 398 -3 400 -28 485 -127 416
-177 724 -164 1005 7 140 23 218 61 293 81 158 221 183 670 118 137 -20 270
-36 295 -36 25 1 147 19 271 40 200 35 240 39 365 37 122 -2 145 -5 181 -24z"/>
</g>
</svg>
