<?xml version="1.0" standalone="no"?>
<!DOCTYPE svg PUBLIC "-//W3C//DTD SVG 20010904//EN"
 "http://www.w3.org/TR/2001/REC-SVG-20010904/DTD/svg10.dtd">
<svg version="1.0" xmlns="http://www.w3.org/2000/svg"
 width="512.000000pt" height="512.000000pt" viewBox="0 0 512.000000 512.000000"
 preserveAspectRatio="xMidYMid meet">

<g transform="translate(0.000000,512.000000) scale(0.100000,-0.100000)"
fill="#000000" stroke="none">
<path d="M0 2560 l0 -2560 2560 0 2560 0 0 2560 0 2560 -2560 0 -2560 0 0
-2560z m3358 1679 c149 -50 209 -178 219 -474 13 -375 -35 -667 -158 -954
l-49 -114 0 -176 c0 -482 -64 -1094 -157 -1496 -14 -60 -29 -117 -34 -125 -12
-23 -100 170 -160 350 -79 240 -136 504 -159 735 -16 161 -63 253 -161 315
-167 108 -399 59 -497 -105 -39 -64 -47 -98 -67 -275 -36 -322 -114 -700 -194
-950 -28 -86 -36 -98 -49 -73 -38 71 -92 392 -129 762 -22 229 -26 322 -28
671 -2 285 -6 414 -15 435 -14 36 -50 166 -91 325 -94 365 -114 758 -49 945
71 206 205 247 615 189 405 -57 345 -56 629 -8 301 51 435 57 534 23z"/>
</g>
</svg>
