<?xml version="1.0" standalone="no"?>
<!DOCTYPE svg PUBLIC "-//W3C//DTD SVG 20010904//EN"
 "http://www.w3.org/TR/2001/REC-SVG-20010904/DTD/svg10.dtd">
<svg version="1.0" xmlns="http://www.w3.org/2000/svg"
 width="512.000000pt" height="512.000000pt" viewBox="0 0 512.000000 512.000000"
 preserveAspectRatio="xMidYMid meet">

<g transform="translate(0.000000,512.000000) scale(0.100000,-0.100000)"
fill="#000000" stroke="none">
<path d="M0 2560 l0 -2560 2560 0 2560 0 0 2560 0 2560 -2560 0 -2560 0 0
-2560z m3276 1436 c133 -61 177 -237 155 -614 -15 -257 -56 -441 -135 -616
l-33 -71 -6 -255 c-7 -256 -24 -491 -52 -715 -31 -237 -100 -595 -115 -595
-11 0 -47 71 -90 180 -76 192 -145 481 -175 736 -16 139 -38 195 -102 256 -58
57 -124 82 -213 82 -66 1 -85 -4 -142 -32 -70 -34 -116 -82 -143 -145 -8 -20
-22 -98 -30 -174 -27 -248 -82 -535 -140 -738 -37 -129 -57 -177 -67 -167 -27
27 -77 303 -110 602 -15 141 -21 277 -25 570 l-4 385 -39 135 c-73 253 -106
424 -120 628 -24 323 32 500 173 549 75 26 227 21 489 -15 l218 -30 212 33
c280 45 271 44 363 39 55 -3 96 -12 131 -28z"/>
</g>
</svg>
