<?xml version="1.0" encoding="UTF-8" standalone="no"?>
<!-- Created with Inkscape (http://www.inkscape.org/) -->

<svg
   xmlns:dc="http://purl.org/dc/elements/1.1/"
   xmlns:cc="http://creativecommons.org/ns#"
   xmlns:rdf="http://www.w3.org/1999/02/22-rdf-syntax-ns#"
   xmlns:svg="http://www.w3.org/2000/svg"
   xmlns="http://www.w3.org/2000/svg"
   xmlns:sodipodi="http://sodipodi.sourceforge.net/DTD/sodipodi-0.dtd"
   xmlns:inkscape="http://www.inkscape.org/namespaces/inkscape"
   version="1.1"
   id="svg3727"
   width="512"
   height="512"
   viewBox="0 0 512 512"
   sodipodi:docname="ic_molwear_round.svg"
   inkscape:version="0.92.2 (5c3e80d, 2017-08-06)">
  <metadata
     id="metadata3733">
    <rdf:RDF>
      <cc:Work
         rdf:about="">
        <dc:format>image/svg+xml</dc:format>
        <dc:type
           rdf:resource="http://purl.org/dc/dcmitype/StillImage" />
        <dc:title />
      </cc:Work>
    </rdf:RDF>
  </metadata>
  <defs
     id="defs3731" />
  <sodipodi:namedview
     pagecolor="#ffffff"
     bordercolor="#666666"
     borderopacity="1"
     objecttolerance="10"
     gridtolerance="10"
     guidetolerance="10"
     inkscape:pageopacity="0"
     inkscape:pageshadow="2"
     inkscape:window-width="1920"
     inkscape:window-height="1017"
     id="namedview3729"
     showgrid="false"
     inkscape:zoom="1.3037281"
     inkscape:cx="421.88608"
     inkscape:cy="236.88261"
     inkscape:window-x="1912"
     inkscape:window-y="463"
     inkscape:window-maximized="1"
     inkscape:current-layer="svg3727" />
  <path
     inkscape:connector-curvature="0"
     id="path3751"
     d="m 230.08644,506.44352 c -48.97199,-6.6558 -87.31933,-22.18878 -123,-49.82241 C 95.771103,447.85771 76.618352,429.09606 67.617956,417.95857 12.409343,349.641 -1.7160624,258.53259 30.121437,176.10724 41.415787,146.86685 58.698725,120.15771 81.577702,96.586472 119.57157,57.442993 164.22185,34.156642 219.08644,24.87188 c 12.94105,-2.19002 46.98595,-2.997887 61.27767,-1.454086 58.77929,6.349381 109.21883,30.915497 150.23107,73.168678 18.10536,18.653178 30.77701,36.481538 42.35268,59.588008 26.39518,52.68804 32.84393,113.16111 18.10549,169.78409 -8.33411,32.0185 -25.38997,65.75122 -46.55359,92.07277 -9.35447,11.6343 -29.45453,31.06299 -41.51267,40.1261 -32.3919,24.34629 -67.75244,39.54466 -107.90065,46.37693 -13.98022,2.37911 -53.09013,3.52782 -65,1.90915 z M 333.76955,329.27107 c -0.31922,-0.79773 -0.55618,-0.56078 -0.60416,0.60417 -0.0434,1.05416 0.19293,1.64479 0.52522,1.3125 0.33229,-0.33229 0.36781,-1.1948 0.0789,-1.91667 z m 1,-13 c -0.31922,-0.79773 -0.55618,-0.56078 -0.60416,0.60417 -0.0434,1.05416 0.19293,1.64479 0.52522,1.3125 0.33229,-0.33229 0.36781,-1.1948 0.0789,-1.91667 z m -160.96686,-23.5625 c -0.22912,-1.5125 -0.41659,-0.275 -0.41659,2.75 0,3.025 0.18747,4.2625 0.41659,2.75 0.22913,-1.5125 0.22913,-3.9875 0,-5.5 z m 0.008,-30.48209 c -0.22256,-1.79735 -0.40925,-0.56791 -0.41486,2.73209 -0.006,3.3 0.17648,4.77056 0.40466,3.26791 0.22817,-1.50265 0.23276,-4.20265 0.0102,-6 z m 184.0194,-124.4722 c -0.1879,-4.28764 -0.34279,-1.04571 -0.34419,7.20429 -0.001,8.25 0.15234,11.75807 0.34164,7.79571 0.18931,-3.96237 0.19045,-10.71237 0.003,-15 z m -203.00525,-2.51219 c -0.20264,-2.90594 -0.37057,-0.78352 -0.37317,4.71648 -0.003,5.5 0.16319,7.87758 0.36844,5.28352 0.20525,-2.59406 0.20738,-7.09406 0.005,-10 z"
     style="fill:#ededeb" />
  <path
     inkscape:connector-curvature="0"
     id="path3749"
     d="M 241.58644,500.85142 C 184.07825,496.35228 133.50612,474.19591 93.14099,435.81535 28.937417,374.76838 5.0019603,284.3704 29.492356,195.43106 47.452394,130.20737 91.943523,76.525411 152.58644,46.908609 c 23.0431,-11.253795 44.81043,-18.049292 70.70293,-22.072602 15.80231,-2.455445 50.01104,-2.465006 65.59414,-0.01833 68.34554,10.7308 125.58999,46.831317 162.75729,102.640897 26.56909,39.89556 40.44564,87.11188 40.44564,137.62025 0,117.02902 -84.76745,215.4677 -201,233.41712 -12.0822,1.86581 -39.24028,3.15814 -49.5,2.35548 z m -46.56195,-87.89285 c 7.11268,-21.55612 13.96618,-55.78132 18.52287,-92.5 1.50735,-12.14656 2.98696,-20.04543 4.30834,-23 3.09913,-6.92958 8.35311,-12.25528 15.83919,-16.05539 6.33052,-3.21351 7.42786,-3.44461 16.35622,-3.44461 8.78168,0 10.11643,0.26865 16.19527,3.25968 12.41088,6.10666 18.10834,15.25905 19.75865,31.74032 3.68398,36.79096 14.06563,76.12881 27.2863,103.39247 l 4.06967,8.39246 1.31207,-3.89246 c 1.66498,-4.93942 6.97866,-30.13644 7.88552,-37.39247 0.37807,-3.025 1.08089,-7.075 1.56184,-9 0.83261,-3.33257 3.97846,-29.62881 5.98157,-50 1.40762,-14.31534 2.98123,-49.54944 2.98293,-66.78984 0.001,-12.85926 0.2951,-15.87963 1.84837,-19 6.09085,-12.23593 12.77303,-32.60777 15.07543,-45.96016 0.59274,-3.4375 1.52368,-8.8375 2.06876,-12 1.59412,-9.24894 2.36353,-44.71415 1.18778,-54.75 -2.45555,-20.95999 -9.55524,-32.736961 -22.0612,-36.595158 -1.9897,-0.613839 -7.66763,-1.325803 -12.61763,-1.582143 -8.87439,-0.459568 -14.99312,0.291773 -53.48558,6.56769 -10.4738,1.707676 -12.51253,1.753031 -23.14328,0.514857 -6.41173,-0.746781 -15.41821,-2.009915 -20.01441,-2.806965 -21.4144,-3.713578 -41.62336,-4.269456 -50.14085,-1.379201 -5.1238,1.738669 -10.32362,5.910799 -13.6055,10.91652 -8.38564,12.79029 -10.13297,41.36037 -4.67042,76.3644 2.31307,14.82212 5.82095,29.14796 12.73291,52 l 3.32713,11 -0.34021,26 c -0.48888,37.36237 2.93264,87.46361 8.29749,121.5 2.98935,18.96546 5.29492,29.5747 7.25743,33.39562 1.86447,3.63003 2.29202,3.01889 6.22334,-8.89562 z"
     style="fill:#d2d2d2" />
  <path
     inkscape:connector-curvature="0"
     id="path3747"
     d="M 228.34422,490.94658 C 175.79329,484.27904 127.90935,461.10128 90.994231,424.46364 53.381823,387.13397 30.642661,341.20949 22.909626,286.95857 c -1.932089,-13.55452 -1.616192,-47.38868 0.57887,-62 C 31.069775,174.49416 53.00191,130.02133 88.023508,94.097872 101.33886,80.439624 111.07557,72.321099 126.58644,61.943873 c 30.13579,-20.161728 64.41904,-32.743907 102.5,-37.618183 12.33302,-1.578599 41.76169,-1.552805 54.5,0.04777 37.28703,4.685132 71.78126,17.385385 101.96374,37.541507 15.60822,10.423302 25.07056,18.315265 38.60776,32.2004 12.83209,13.161903 19.46995,21.402293 28.87268,35.843203 18.07595,27.76144 30.52138,60.91641 35.66029,95 2.49156,16.52514 2.51274,49.49383 0.0421,65.5 -8.11713,52.58683 -30.3803,96.88651 -67.10015,133.51713 -35.34234,35.25646 -80.51059,58.08698 -130.5464,65.98533 -14.60701,2.30577 -48.18024,2.83314 -62.74222,0.98555 z m -34.15811,-74.48801 c 8.03139,-24.97077 15.75082,-62.81041 19.38036,-95 0.89923,-7.975 2.09586,-16.3 2.65919,-18.5 1.54346,-6.02779 5.24447,-11.76055 10.84089,-16.79221 11.3437,-10.19896 29.53707,-11.35969 42.96763,-2.74133 9.78977,6.28208 14.43868,15.4163 16.04917,31.53354 2.3121,23.1388 8.03228,49.51714 15.93927,73.50314 5.92069,17.96057 14.76133,37.28728 16.00864,34.99686 0.44928,-0.825 1.95979,-6.45 3.3567,-12.5 9.27479,-40.16902 15.69848,-101.36411 15.69848,-149.5511 v -17.69826 l 4.9042,-11.42941 c 6.16973,-14.37877 10.42914,-28.8046 13.23404,-44.82123 1.87918,-10.73056 2.19496,-16.32199 2.23076,-39.5 0.0384,-24.85837 -0.13331,-27.62774 -2.16471,-34.9141 -2.61034,-9.36294 -6.8473,-16.392483 -11.98486,-19.884053 -10.68583,-7.262276 -22.7388,-7.533278 -59.91198,-1.347075 -29.56493,4.92007 -22.04198,5.009009 -63.57624,-0.751618 -30.34552,-4.208795 -43.88433,-3.086233 -52.91765,4.387632 -7.28698,6.029004 -11.45163,18.582474 -12.42316,37.447034 -1.21843,23.65856 3.44826,56.66014 12.09918,85.56218 0.74081,2.475 2.56668,8.55 4.05748,13.5 l 2.71056,9 0.23182,40 c 0.22371,38.59821 0.66661,46.73525 4.57221,84 2.34582,22.38238 8.2065,53.39548 11.11865,58.83689 1.3391,2.50213 2.13812,1.31044 4.91937,-7.33689 z"
     style="fill:#98b0d8" />
  <path
     inkscape:connector-curvature="0"
     id="path3745"
     d="M 245.08644,491.82373 C 211.13431,489.66039 181.06296,481.74922 152.12115,467.3664 104.75928,443.82961 69.435394,408.4031 46.021576,360.95857 c -16.501568,-33.43791 -23.935132,-65.42675 -23.935132,-103 0,-26.86876 3.376897,-48.37606 11.461849,-73 C 56.877261,113.90669 111.42183,59.004176 182.18752,35.343913 c 83.80291,-28.0192121 176.79223,-6.03999 239.4229,56.590679 36.76873,36.768728 60.07557,84.225328 67.035,136.494418 1.65534,12.43245 1.879,44.02785 0.39681,56.05579 -6.28403,50.99503 -28.40884,98.09476 -63.19369,134.52795 -43.15619,45.20123 -99.72437,70.47402 -162.7621,72.71671 -6.875,0.24459 -14.975,0.28701 -18,0.0943 z m -51.6354,-73.11516 c 8.21213,-21.82832 16.27378,-62.00563 21.70551,-108.17508 1.22074,-10.37618 3.44342,-15.57145 9.37485,-21.91262 6.83525,-7.30744 14.68807,-10.54907 25.55504,-10.54907 10.86561,0 18.71995,3.2418 25.55275,10.54662 6.60048,7.05645 8.95791,13.17838 10.33557,26.84015 2.33837,23.18882 8.95402,53.12909 16.79307,76 4.45541,12.99893 12.02695,30.51306 13.84252,32.01984 1.74502,1.44824 3.49009,-4.1944 7.42847,-24.01984 7.92304,-39.88393 13.03617,-92.06324 13.04355,-133.10917 l 0.004,-22.60917 3.40633,-7.39083 c 9.22708,-20.02034 14.90625,-42.45839 16.67724,-65.89083 1.31876,-17.44877 0.74203,-46.68869 -1.08482,-55 -1.70551,-7.75925 -6.47483,-17.381357 -10.14675,-20.471075 -6.98587,-5.878225 -10.43422,-6.935789 -23.9412,-7.342459 -11.15919,-0.335981 -15.37062,0.08626 -37.07584,3.71725 -13.46758,2.252957 -26.29769,4.096286 -28.51128,4.096286 -2.21359,0 -15.22947,-1.615675 -28.92416,-3.590388 -37.9145,-5.467099 -52.43409,-4.433793 -61.7427,4.394002 -6.87136,6.516434 -10.46772,18.168414 -11.32628,36.696384 -1.30425,28.14635 3.68406,58.85343 16.32604,100.5 2.5682,8.46046 2.5813,8.68606 2.81453,48.5 0.23571,40.2383 0.82957,51.10943 4.57586,83.76578 3.36369,29.3213 9.47912,59.73422 12.01135,59.73422 0.42179,0 1.90965,-3.0375 3.30635,-6.75 z"
     style="fill:#4e90fe" />
  <path
     inkscape:connector-curvature="0"
     id="path3743"
     d="M 245.08644,491.82373 C 211.13431,489.66039 181.06296,481.74922 152.12115,467.3664 104.73975,443.81991 69.327212,408.2951 46.049599,360.95857 c -7.528108,-15.30889 -16.124284,-38.52176 -17.405016,-47 -0.332334,-2.2 0.788787,0.5 2.491381,6 1.702594,5.5 3.512968,10.15 4.023053,10.33333 0.510085,0.18334 0.934318,1.75834 0.94274,3.5 0.01167,2.41236 0.246222,2.80936 0.984687,1.66667 0.861666,-1.33333 0.985703,-1.33333 1.116328,0 0.08082,0.825 0.478477,-0.075 0.883672,-2 l 0.736718,-3.5 0.146954,3.5 c 0.111442,2.65423 0.381203,3.13753 1.116328,2 0.861666,-1.33333 0.985703,-1.33333 1.116328,0 0.08082,0.825 0.478477,-0.075 0.883672,-2 l 0.736718,-3.5 0.146954,3.5 c 0.111442,2.65423 0.381203,3.13753 1.116328,2 0.533156,-0.825 1.029507,-1.05 1.103002,-0.5 0.0735,0.55 0.477144,-0.35 0.896998,-2 0.733877,-2.88409 0.767942,-2.90019 0.881685,-0.41667 0.07223,1.57705 0.702611,2.58334 1.618315,2.58334 0.920513,0 1.538509,-0.99801 1.59968,-2.58334 l 0.09968,-2.58333 0.80064,2.5 c 0.440352,1.375 0.852387,1.825 0.915633,1 0.102216,-1.33333 0.222701,-1.33333 1.084367,0 0.773601,1.19706 0.992598,0.9951 1.084367,-1 l 0.114993,-2.5 0.80064,2.5 0.80064,2.5 0.169965,-2.5 c 0.156982,-2.30903 0.235617,-2.34722 1.029395,-0.5 0.690223,1.60623 0.901206,1.21247 1.07162,-2 l 0.212191,-4 0.716189,4 c 0.393904,2.2 0.811675,3.1 0.92838,2 l 0.212191,-2 0.859429,2 c 0.689319,1.60413 0.899398,1.20826 1.061356,-2 l 0.201926,-4 0.736718,3.5 c 0.405195,1.925 0.802847,2.825 0.883672,2 0.130625,-1.33333 0.254662,-1.33333 1.116328,0 0.735125,1.13753 1.004886,0.65423 1.116328,-2 l 0.146954,-3.5 0.736718,3.5 c 0.405195,1.925 0.795956,2.91094 0.868359,2.19098 0.0724,-0.71996 0.551015,-1.04983 1.063583,-0.73304 0.512567,0.31678 1.120143,-0.66916 1.350168,-2.19099 l 0.418226,-2.76695 0.149832,2.71862 c 0.182238,3.30661 3.092917,2.79102 3.249512,-0.57561 0.09039,-1.9432 0.174331,-1.90991 0.90032,0.35699 l 0.80064,2.5 0.169965,-2.5 c 0.156982,-2.30903 0.235617,-2.34722 1.029395,-0.5 0.690223,1.60623 0.901206,1.21247 1.07162,-2 l 0.212191,-4 0.716189,4 c 0.393904,2.2 0.786938,3.1 0.873407,2 0.131225,-1.66933 0.317491,-1.752 1.126593,-0.5 0.735125,1.13753 1.004886,0.65423 1.116328,-2 l 0.146954,-3.5 0.736718,3.5 c 0.405195,1.925 0.795956,2.91094 0.868359,2.19098 0.0724,-0.71996 0.551015,-1.04983 1.063583,-0.73304 0.512567,0.31678 1.120143,-0.66916 1.350168,-2.19099 l 0.418226,-2.76695 0.149832,2.71862 c 0.21494,3.89996 3.110364,2.50972 3.281473,-1.57561 l 0.131641,-3.14301 0.736718,3.5 c 0.608681,2.89173 0.771811,3.06552 0.938644,1 0.186888,-2.31381 0.265934,-2.35105 1.061356,-0.5 0.689319,1.60413 0.899398,1.20826 1.061356,-2 l 0.201926,-4 0.736718,3.5 c 0.405195,1.925 0.802847,2.825 0.883672,2 0.130625,-1.33333 0.254662,-1.33333 1.116328,0 0.734422,1.13644 1.001763,0.65168 1.103002,-2 0.116376,-3.04815 0.215178,-3.17725 0.765313,-1 0.879041,3.47897 3.108071,3.65143 3.231361,0.25 l 0.0997,-2.75 0.80064,2.5 0.80064,2.5 0.16997,-2.5 c 0.15698,-2.30903 0.23561,-2.34722 1.02939,-0.5 0.69022,1.60623 0.90121,1.21247 1.07162,-2 l 0.21219,-4 0.71619,4 c 0.3939,2.2 0.78694,3.1 0.87341,2 0.13122,-1.66933 0.31749,-1.752 1.12659,-0.5 0.73442,1.13644 1.00176,0.65168 1.103,-2 0.11638,-3.04815 0.21518,-3.17725 0.76531,-1 0.87905,3.47897 3.10808,3.65143 3.23137,0.25 l 0.0997,-2.75 0.80064,2.5 0.80064,2.5 0.16997,-2.5 c 0.15698,-2.30903 0.23561,-2.34722 1.02939,-0.5 0.68932,1.60413 0.8994,1.20826 1.06136,-2 l 0.20192,-4 0.73668,3.5 c 0.40519,1.925 0.80285,2.825 0.88367,2 0.13063,-1.33333 0.25466,-1.33333 1.11633,0 0.73442,1.13644 1.00176,0.65168 1.103,-2 l 0.13363,-3.5 0.76337,3 c 0.517,2.03178 0.8065,2.35452 0.897,1 0.11141,-1.66753 0.29477,-1.75065 1.103,-0.5 0.71251,1.10253 1.01103,0.30758 1.12659,-3 l 0.15722,-4.5 0.71619,4 c 0.3939,2.2 0.78694,3.1 0.87341,2 0.13122,-1.66933 0.31749,-1.752 1.12659,-0.5 0.73442,1.13644 1.00176,0.65168 1.103,-2 0.11638,-3.04815 0.21518,-3.17725 0.76531,-1 0.87905,3.47897 3.10808,3.65143 3.23137,0.25 l 0.0997,-2.75 0.80064,2.5 0.80064,2.5 0.16997,-2.5 c 0.15698,-2.30903 0.23561,-2.34722 1.02939,-0.5 0.68932,1.60413 0.8994,1.20826 1.06136,-2 l 0.20192,-4 0.7367,3.5 c 0.40519,1.925 0.79596,2.91094 0.86836,2.19098 0.0724,-0.71996 0.58164,-1.0309 1.13164,-0.69098 0.56912,0.35173 1.04295,-0.59232 1.09968,-2.19098 l 0.0997,-2.80902 0.80064,2.5 0.80064,2.5 0.16997,-2.5 c 0.15698,-2.30903 0.23561,-2.34722 1.02939,-0.5 0.68932,1.60413 0.8994,1.20826 1.06136,-2 l 0.20192,-4 0.73672,3.5 c 0.40519,1.925 0.79596,2.91094 0.86836,2.19098 0.0724,-0.71996 0.58164,-1.0309 1.13164,-0.69098 0.56912,0.35173 1.04295,-0.59232 1.09968,-2.19098 l 0.0997,-2.80902 0.80064,2.5 0.80064,2.5 0.16997,-2.5 c 0.15698,-2.30903 0.23561,-2.34722 1.02939,-0.5 0.68932,1.60413 0.8994,1.20826 1.06136,-2 l 0.20192,-4 0.73672,3.5 c 0.40519,1.925 0.79596,2.91094 0.86836,2.19098 0.0724,-0.71996 0.58164,-1.0309 1.13164,-0.69098 0.56912,0.35173 1.04295,-0.59232 1.09968,-2.19098 l 0.0997,-2.80902 0.80064,2.5 0.80064,2.5 0.16997,-2.5 c 0.15698,-2.30903 0.23561,-2.34722 1.02939,-0.5 0.54527,1.26892 0.90846,-2.75203 0.99355,-11 0.0738,-7.15 0.29128,-14.575 0.48336,-16.5 0.19208,-1.925 0.48388,-8.225 0.64844,-14 0.26895,-9.43811 -0.0167,-11.51133 -2.82442,-20.5 -3.12556,-10.00617 -7.63248,-26.84077 -10.70871,-40 -3.55393,-15.20273 -5.0288,-30.59799 -5.02951,-52.5 -7.5e-4,-23.18924 0.85554,-29.10518 5.84618,-40.38989 3.41674,-7.725867 11.41141,-15.505477 19.09111,-18.577553 5.09618,-2.038601 8.10892,-2.456223 20,-2.772372 8.99851,-0.239244 17.75112,0.159049 24.5,1.114888 46.24714,6.549947 41.54858,6.43849 67,1.589338 8.47952,-1.615568 33.29324,-5.066225 38.5,-5.353906 1.1,-0.06078 2.30587,-0.785503 2.67971,-1.610503 0.58672,-1.294767 0.68934,-1.283365 0.75,0.08333 0.0387,0.870834 0.74529,1.583334 1.57029,1.583334 1.18509,0 1.53911,-1.592061 1.6863,-7.583334 l 0.18631,-7.58333 0.62739,8.5 c 0.34507,4.675 0.71123,6.5875 0.8137,4.25 0.10246,-2.3375 0.6363,-4.25 1.1863,-4.25 0.61605,0 1.07516,-6.047164 1.19575,-15.75 0.19311,-15.538377 0.20392,-15.608918 0.80425,-5.25 0.51155,8.827031 0.6397,9.42452 0.80425,3.75 0.10766,-3.7125 0.64575,-6.75 1.19575,-6.75 0.55,0 1,-1.125 1,-2.5 0,-1.375 0.47547,-2.5 1.05661,-2.5 1.6282,0 17.14396,6.578652 26.26446,11.136078 59.73873,29.850874 104.34703,85.13246 120.60772,149.46515 5.64099,22.31763 6.4909,29.70009 6.49292,56.39877 0.002,21.05616 -0.32336,26.39762 -2.31179,38 -17.4852,102.02489 -99.10045,180.56133 -201.07586,193.49059 -11.5906,1.46955 -32.44131,2.42207 -41.03406,1.87457 z m -51.6354,-73.11516 c 8.21213,-21.82832 16.27378,-62.00563 21.70551,-108.17508 1.22074,-10.37618 3.44342,-15.57145 9.37485,-21.91262 6.83525,-7.30744 14.68807,-10.54907 25.55504,-10.54907 10.86561,0 18.71995,3.2418 25.55275,10.54662 6.60048,7.05645 8.95791,13.17838 10.33557,26.84015 2.33837,23.18882 8.95402,53.12909 16.79307,76 4.45541,12.99893 12.02695,30.51306 13.84252,32.01984 1.74502,1.44824 3.49009,-4.1944 7.42847,-24.01984 7.92304,-39.88393 13.03617,-92.06324 13.04355,-133.10917 l 0.004,-22.60917 3.40633,-7.39083 c 9.22708,-20.02034 14.90625,-42.45839 16.67724,-65.89083 1.31876,-17.44877 0.74203,-46.68869 -1.08482,-55 -1.70551,-7.75925 -6.47483,-17.381357 -10.14675,-20.471075 -6.98587,-5.878225 -10.43422,-6.935789 -23.9412,-7.342459 -11.15919,-0.335981 -15.37062,0.08626 -37.07584,3.71725 -13.46758,2.252957 -26.29769,4.096286 -28.51128,4.096286 -2.21359,0 -15.22947,-1.615675 -28.92416,-3.590388 -37.9145,-5.467099 -52.43409,-4.433793 -61.7427,4.394002 -6.87136,6.516434 -10.46772,18.168414 -11.32628,36.696384 -1.30425,28.14635 3.68406,58.85343 16.32604,100.5 2.5682,8.46046 2.5813,8.68606 2.81453,48.5 0.23571,40.2383 0.82957,51.10943 4.57586,83.76578 3.36369,29.3213 9.47912,59.73422 12.01135,59.73422 0.42179,0 1.90965,-3.0375 3.30635,-6.75 z M 164.80402,314.72232 c -0.22985,-1.52006 -0.42406,-0.51375 -0.43157,2.23625 -0.007,2.75 0.18056,3.99369 0.41792,2.76375 0.23736,-1.22994 0.24351,-3.47994 0.0136,-5 z m -1.0553,-15.51375 c -0.27741,-0.6875 -0.50439,-0.125 -0.50439,1.25 0,1.375 0.22698,1.9375 0.50439,1.25 0.27741,-0.6875 0.27741,-1.8125 0,-2.5 z m -136.504381,8.25 c 0,-1.375 0.226973,-1.9375 0.504386,-1.25 0.277412,0.6875 0.277412,1.8125 0,2.5 -0.277413,0.6875 -0.504386,0.125 -0.504386,-1.25 z m -1.078948,-4.58333 c 0.04798,-1.16495 0.284941,-1.4019 0.604167,-0.60417 0.288871,0.72187 0.253344,1.58438 -0.07895,1.91667 -0.332292,0.33229 -0.568641,-0.25834 -0.52522,-1.3125 z m -1,-5 c 0.04798,-1.16495 0.284941,-1.4019 0.604167,-0.60417 0.288871,0.72187 0.253344,1.58438 -0.07895,1.91667 -0.332292,0.33229 -0.568641,-0.25834 -0.52522,-1.3125 z m -1,-6 c 0.04798,-1.16495 0.284941,-1.4019 0.604167,-0.60417 0.288871,0.72187 0.253344,1.58438 -0.07895,1.91667 -0.332292,0.33229 -0.568641,-0.25834 -0.52522,-1.3125 z m -0.921052,-7.41667 c 0,-1.375 0.226973,-1.9375 0.504386,-1.25 0.277412,0.6875 0.277412,1.8125 0,2.5 -0.277413,0.6875 -0.504386,0.125 -0.504386,-1.25 z M 329.16539,67.875239 c 0.048,-1.164943 0.28494,-1.4019 0.60416,-0.604167 0.28887,0.721875 0.25335,1.584375 -0.0789,1.916667 -0.33229,0.332291 -0.56864,-0.258334 -0.52522,-1.3125 z m 0,-4 c 0.048,-1.164943 0.28494,-1.4019 0.60416,-0.604167 0.28887,0.721875 0.25335,1.584375 -0.0789,1.916667 -0.33229,0.332291 -0.56864,-0.258334 -0.52522,-1.3125 z m -2,-4 c 0.048,-1.164943 0.28494,-1.4019 0.60416,-0.604167 0.28887,0.721875 0.25335,1.584375 -0.0789,1.916667 -0.33229,0.332291 -0.56864,-0.258334 -0.52522,-1.3125 z m 0,-4 c 0.048,-1.164943 0.28494,-1.4019 0.60416,-0.604167 0.28887,0.721875 0.25335,1.584375 -0.0789,1.916667 -0.33229,0.332291 -0.56864,-0.258334 -0.52522,-1.3125 z m 6,-12 c 0.048,-1.164943 0.28494,-1.4019 0.60416,-0.604167 0.28887,0.721875 0.25335,1.584375 -0.0789,1.916667 -0.33229,0.332291 -0.56864,-0.258334 -0.52522,-1.3125 z"
     style="fill:#468afd" />
  <path
     inkscape:connector-curvature="0"
     id="path3741"
     d="M 245.08644,491.82373 C 159.02879,486.34038 85.549955,438.89859 47.544073,364.28003 c -3.551696,-6.97319 -6.44946,-13.04819 -6.439475,-13.5 0.01,-0.4518 2.967214,4.80354 6.571622,11.67854 31.93447,60.91139 86.54416,103.80432 152.85184,120.05677 19.82136,4.85835 32.77505,6.3355 55.55838,6.3355 38.5181,0 69.19224,-7.07003 103.5,-23.85555 51.44071,-25.16802 92.67092,-69.19076 113.57309,-121.26539 1.81659,-4.52578 3.47271,-8.05886 3.68027,-7.85131 0.5878,0.58781 -6.24494,16.60317 -11.84192,27.75646 -34.44606,68.64177 -102.38326,116.61557 -178.87738,126.31411 -11.5906,1.46955 -32.44131,2.42207 -41.03406,1.87457 z m -60.91762,-59.08139 c -5.70973,-6.92688 -10.15761,-25.78472 -14.57255,-61.78377 -3.9666,-32.34324 -4.74142,-45.78843 -5.0433,-87.51526 l -0.28588,-39.51527 -4.02492,-13.98473 c -12.12799,-42.1392 -16.13378,-68.54981 -14.78586,-97.48474 1.30007,-27.90785 7.52397,-40.884463 23.3639,-48.712982 7.5666,-3.739618 7.73484,-3.771478 21.69598,-4.108783 9.39691,-0.227032 17.39169,0.177861 24.07025,1.219028 5.5,0.857433 17.14813,2.521939 25.88472,3.698903 15.40045,2.074693 16.2236,2.088981 27,0.468656 6.11341,-0.919202 16.06528,-2.650709 22.11528,-3.847792 8.72179,-1.725737 14.62442,-2.18071 28.5,-2.196771 l 17.5,-0.02026 6.65125,3.15125 c 14.37371,6.810022 21.37225,18.679478 23.92989,40.584908 1.35425,11.5987 0.72148,47.87136 -1.07746,61.76384 -2.20312,17.01374 -8.24964,37.89482 -15.60513,53.89083 l -3.39855,7.39083 -0.01,22.60917 c -0.0143,32.61057 -3.1075,71.20455 -8.51998,106.30287 -8.51415,55.2117 -14.62311,69.34602 -25.14842,58.18594 -11.87649,-12.59287 -29.4325,-67.33702 -34.27532,-106.87964 -3.01444,-24.61347 -3.15277,-25.09127 -9.05042,-31.26058 -11.94353,-12.49367 -32.17901,-9.99827 -41.73999,5.14731 -2.0655,3.27195 -2.74667,6.2732 -3.868,17.0423 -4.78623,45.9666 -18.52224,105.19195 -26.96378,116.25938 -3.66006,4.79859 -8.17478,4.65057 -12.34171,-0.40464 z m 9.28222,-14.03377 c 8.21213,-21.82832 16.27378,-62.00563 21.70551,-108.17508 1.22074,-10.37618 3.44342,-15.57145 9.37485,-21.91262 6.83525,-7.30744 14.68807,-10.54907 25.55504,-10.54907 10.86561,0 18.71995,3.2418 25.55275,10.54662 6.60048,7.05645 8.95791,13.17838 10.33557,26.84015 2.33837,23.18882 8.95402,53.12909 16.79307,76 4.45541,12.99893 12.02695,30.51306 13.84252,32.01984 1.74502,1.44824 3.49009,-4.1944 7.42847,-24.01984 7.92304,-39.88393 13.03617,-92.06324 13.04355,-133.10917 l 0.004,-22.60917 3.40633,-7.39083 c 9.22708,-20.02034 14.90625,-42.45839 16.67724,-65.89083 1.31876,-17.44877 0.74203,-46.68869 -1.08482,-55 -1.70551,-7.75925 -6.47483,-17.381357 -10.14675,-20.471075 -6.98587,-5.878225 -10.43422,-6.935789 -23.9412,-7.342459 -11.15919,-0.335981 -15.37062,0.08626 -37.07584,3.71725 -13.46758,2.252957 -26.29769,4.096286 -28.51128,4.096286 -2.21359,0 -15.22947,-1.615675 -28.92416,-3.590388 -37.9145,-5.467099 -52.43409,-4.433793 -61.7427,4.394002 -6.87136,6.516434 -10.46772,18.168414 -11.32628,36.696384 -1.30425,28.14635 3.68406,58.85343 16.32604,100.5 2.5682,8.46046 2.5813,8.68606 2.81453,48.5 0.23571,40.2383 0.82957,51.10943 4.57586,83.76578 3.36369,29.3213 9.47912,59.73422 12.01135,59.73422 0.42179,0 1.90965,-3.0375 3.30635,-6.75 z M 39.248885,346.91574 c -1.675489,-3.67729 -1.355835,-4.46179 0.455855,-1.11876 0.846022,1.56112 1.351103,3.02552 1.122403,3.25422 -0.2287,0.2287 -0.938916,-0.73225 -1.578258,-2.13546 z m -3.538902,-8.99583 c -0.964979,-2.51469 -0.680311,-3.16355 0.498534,-1.13634 0.58369,1.00375 0.850598,2.03566 0.593129,2.29313 -0.257468,0.25747 -0.748717,-0.26309 -1.091663,-1.15679 z"
     style="fill:#3970cc" />
  <path
     inkscape:connector-curvature="0"
     id="path3739"
     d="m 185.33329,433.20857 c -3.86974,-3.99831 -5.6726,-8.20973 -8.2542,-19.28153 -8.11356,-34.79682 -14.01728,-104.74493 -12.54898,-148.68199 l 0.65879,-19.71351 -4.66934,-16.28649 c -9.44116,-32.93039 -12.87669,-50.70697 -14.52247,-75.1442 -2.45643,-36.47417 3.64217,-58.229226 19.08935,-68.095934 11.3237,-7.232884 28.7742,-8.008209 63.5,-2.8213 11.55,1.725196 22.575,3.35283 24.5,3.616966 1.925,0.264135 14.075,-1.346521 27,-3.579235 19.63721,-3.392207 25.88343,-4.076189 38,-4.161128 17.22644,-0.12076 23.54487,1.465579 31.46243,7.899127 14.33333,11.64678 19.11739,33.269004 16.75627,75.732354 -1.65658,29.79251 -6.93211,53.21909 -16.8125,74.6577 l -3.4062,7.39083 v 18.18657 c 0,15.92106 -1.88884,52.35451 -3.55294,68.53177 -4.47899,43.54186 -12.27398,87.27135 -17.56176,98.52062 -5.10687,10.8644 -11.99539,6.92598 -20.98921,-12.0003 -11.71266,-24.6477 -24.22773,-72.00158 -26.43419,-100.02032 -1.00466,-12.75768 -2.85996,-17.9933 -8.30598,-23.43932 -13.03329,-13.03329 -34.83486,-9.85058 -42.53668,6.20973 -2.00902,4.18934 -2.92314,8.90953 -4.59549,23.72959 -1.14819,10.175 -2.29227,19.08374 -2.54241,19.79721 -0.25014,0.71346 -1.1764,5.88846 -2.05834,11.5 -4.26006,27.10526 -13.6212,63.45024 -19.04284,73.93453 -3.84364,7.43279 -8.21206,8.60303 -13.13331,3.51826 z m 8.22353,-14.25 c 7.61997,-20.20584 17.33982,-68.35301 21.58605,-106.92624 1.71602,-15.58846 8.12401,-25.66961 19.52129,-30.71116 14.04039,-6.21073 28.96767,-3.85344 40.00123,6.31693 7.38888,6.81084 9.26541,12.06059 11.97954,33.51372 3.36471,26.59542 7.47746,44.53762 16.1435,70.42719 4.77637,14.26928 13.09973,32.36357 14.78126,32.13325 1.85344,-0.25388 7.09169,-24.01802 11.07725,-50.25369 5.12809,-33.75656 7.5289,-62.44574 8.11731,-97 l 0.55344,-32.5 4.29373,-10 c 12.34152,-28.74306 16.46417,-50.81291 16.4716,-88.17764 0.002,-9.4477 -0.48096,-20.66021 -1.07298,-24.91669 -2.5403,-18.26403 -10.06096,-28.867345 -23.03247,-32.473251 -5.67866,-1.578592 -24.03727,-1.363071 -34.89113,0.409604 -4.675,0.763531 -16.13322,2.663022 -25.46271,4.22109 l -16.96271,2.832852 -26.53729,-3.654166 c -33.05688,-4.551907 -36.81209,-4.857257 -45.75955,-3.720874 -23.25649,2.953718 -31.22646,18.523945 -29.93382,58.479075 0.87417,27.02021 3.73542,43.27175 13.72113,77.9342 l 5.09483,17.68522 0.28136,40.19029 c 0.29562,42.22893 1.0687,55.63064 5.07367,87.95383 3.31973,26.79285 7.89109,49.22487 11.2191,55.05299 0.67319,1.17891 0.82694,0.8984 3.73637,-6.81653 z"
     style="fill:#090a0b" />
</svg>
