<?xml version="1.0" encoding="UTF-8" standalone="no"?>
<!-- Created with Inkscape (http://www.inkscape.org/) -->

<svg
   xmlns:dc="http://purl.org/dc/elements/1.1/"
   xmlns:cc="http://creativecommons.org/ns#"
   xmlns:rdf="http://www.w3.org/1999/02/22-rdf-syntax-ns#"
   xmlns:svg="http://www.w3.org/2000/svg"
   xmlns="http://www.w3.org/2000/svg"
   xmlns:sodipodi="http://sodipodi.sourceforge.net/DTD/sodipodi-0.dtd"
   xmlns:inkscape="http://www.inkscape.org/namespaces/inkscape"
   version="1.1"
   id="svg3699"
   width="512"
   height="512"
   viewBox="0 0 512 512"
   sodipodi:docname="ic_molwear2.svg"
   inkscape:version="0.92.2 (5c3e80d, 2017-08-06)">
  <metadata
     id="metadata3705">
    <rdf:RDF>
      <cc:Work
         rdf:about="">
        <dc:format>image/svg+xml</dc:format>
        <dc:type
           rdf:resource="http://purl.org/dc/dcmitype/StillImage" />
        <dc:title />
      </cc:Work>
    </rdf:RDF>
  </metadata>
  <defs
     id="defs3703" />
  <sodipodi:namedview
     pagecolor="#ffffff"
     bordercolor="#666666"
     borderopacity="1"
     objecttolerance="10"
     gridtolerance="10"
     guidetolerance="10"
     inkscape:pageopacity="0"
     inkscape:pageshadow="2"
     inkscape:window-width="1920"
     inkscape:window-height="1017"
     id="namedview3701"
     showgrid="false"
     inkscape:zoom="1.6601562"
     inkscape:cx="256"
     inkscape:cy="256"
     inkscape:window-x="1912"
     inkscape:window-y="463"
     inkscape:window-maximized="1"
     inkscape:current-layer="svg3699" />
  <path
     inkscape:connector-curvature="0"
     id="path3723"
     d="M 82.602351,473.93417 C 65.977107,471.44962 53.867997,462.04257 48.285376,447.27478 L 46.102351,441.5 45.823449,266.5 C 45.510131,69.905879 45.063637,82.527169 52.738296,71.034277 57.828857,63.411102 63.387254,58.576236 71.602351,54.625737 l 6.5,-3.125739 h 178.499999 178.5 l 6.84714,3.242919 c 12.31217,5.831245 21.74322,17.767439 24.53827,31.056302 1.57904,7.507418 1.57904,347.894141 0,355.401561 -1.80657,8.58922 -5.42398,15.05465 -11.8553,21.18909 -7.26333,6.92804 -14.03156,10.13632 -24.35247,11.54356 -9.3926,1.28067 -339.108383,1.28137 -347.677639,7.4e-4 z"
     style="fill:#ececea" />
  <path
     inkscape:connector-curvature="0"
     id="path3721"
     d="M 83.402417,463.92027 C 71.896154,462.23299 61.238384,453.85873 55.782407,442.21807 L 53.102351,436.5 V 257 77.499998 l 2.344311,-4.716353 c 3.353973,-6.747621 9.114584,-12.891161 15.300282,-16.317349 l 5.355407,-2.966298 h 180.499999 180.5 l 4.34941,2.321041 c 6.62312,3.534387 12.80689,9.77943 15.88012,16.037452 l 2.77047,5.641507 V 257 436.5 l -2.68006,5.71807 c -3.36303,7.17523 -10.83883,15.25107 -17.01514,18.38084 -2.60414,1.31962 -7.78805,2.8408 -11.5198,3.38039 -8.37624,1.21117 -337.206111,1.15499 -345.484933,-0.059 z M 204.62538,383.57962 c 5.82591,-20.16224 11.79131,-52.46607 14.91324,-80.7582 1.14248,-10.35357 4.06544,-16.78336 10.11364,-22.24755 6.75052,-6.09869 12.06937,-8.05275 21.95009,-8.0641 7.30145,-0.008 9.30577,0.38591 14.21444,2.79638 9.66822,4.74771 17.77513,16.58678 17.79098,25.98136 0.0109,6.43298 4.05482,30.56286 7.41664,44.25417 5.85348,23.83882 16.35514,52.12668 18.51937,49.88479 2.31327,-2.39628 9.58422,-45.972 12.50206,-74.92647 1.95506,-19.40046 3.5552,-48.57709 3.55593,-64.838 5.6e-4,-12.37179 0.12227,-13.11624 3.35167,-20.5 10.43232,-23.85266 13.65717,-41.47028 13.63413,-74.48436 -0.0197,-28.18303 -2.13299,-37.21014 -10.41318,-44.48024 -7.72446,-6.78217 -21.06779,-7.20789 -53.05886,-1.69285 -15.18958,2.61858 -22.37162,3.43965 -26,2.9724 -2.75725,-0.35507 -12.88818,-1.78545 -22.51318,-3.17861 -9.625,-1.39316 -22.4544,-2.58591 -28.50977,-2.65056 -10.13333,-0.10819 -11.46138,0.1034 -16.68266,2.65794 -11.33043,5.54346 -14.81899,15.42508 -14.78925,41.89169 0.0267,23.71231 2.60771,39.62567 11.48381,70.80259 l 4.41286,15.5 0.44565,38 c 0.4378,37.33111 1.50072,53.73933 5.18238,80 1.8138,12.93749 5.26359,30.86116 6.63324,34.46356 1.29307,3.40096 1.93683,2.14752 5.84677,-11.38394 z"
     style="fill:#b2c7eb" />
  <path
     inkscape:connector-curvature="0"
     id="path3719"
     d="M 75.954898,458.5745 C 67.828126,456.02144 61.418335,450.22567 56.484563,440.96932 L 54.102351,436.5 V 257.5 78.499998 L 56.281624,73.78277 C 59.342568,67.157087 66.704858,59.653707 72.888587,56.857554 l 5.213764,-2.357556 h 178.999999 179 l 4.69487,2.31252 c 6.35323,3.129362 12.57533,9.540253 15.7108,16.18748 l 2.59433,5.5 V 257.5 v 179 l -2.78425,5.28435 c -3.42572,6.50181 -9.31558,12.34659 -15.52294,15.40413 l -4.69281,2.31152 -178,0.18872 C 114.22203,459.84126 79.307352,459.62768 75.954898,458.5745 Z M 203.00283,390.25 c 6.1028,-18.44127 13.66269,-56.61077 16.58762,-83.75 0.77079,-7.15192 1.98417,-12.77938 3.46852,-16.08648 8.93519,-19.90737 36.53671,-24.07801 51.55099,-7.78944 5.78126,6.27193 7.61092,11.13476 8.98343,23.87592 2.40985,22.37091 9.11955,51.16959 16.57465,71.13995 4.99988,13.39343 8.33387,19.86049 9.59079,18.60357 1.4328,-1.4328 6.24648,-26.04683 9.27603,-47.43155 3.98903,-28.15744 5.64056,-48.82328 6.25836,-78.31197 l 0.56567,-27 4.35665,-10.2594 c 9.99149,-23.52881 12.72029,-38.59143 12.81563,-70.7406 0.0762,-25.68052 -0.57224,-30.74806 -5.08734,-39.75937 -6.73343,-13.43872 -20.94711,-15.56022 -58.84148,-8.78255 -9.35,1.67231 -19.30348,3.04087 -22.11884,3.04124 -2.81536,3.7e-4 -14.51536,-1.3907 -26,-3.09127 -24.93135,-3.69167 -38.99449,-3.73322 -45.97584,-0.13582 -9.99857,5.15214 -14.24635,15.04658 -15.12362,35.22777 -1.00062,23.01893 2.49445,46.14005 11.82685,78.23882 L 186.72942,244.5 186.0704,262 c -1.01524,26.95918 1.63248,71.07775 6.1214,102 2.57028,17.7056 6.31017,34 7.80368,34 0.24344,0 1.59675,-3.4875 3.00735,-7.75 z"
     style="fill:#97b1dd" />
  <path
     inkscape:connector-curvature="0"
     id="path3717"
     d="M 75.422074,456.42042 C 69.068581,454.46524 60.553366,446.56126 57.484147,439.77011 L 55.102351,434.5 v -177 c 0,-148.80657 0.222132,-177.637142 1.394559,-181.000002 3.475429,-9.968541 12.795907,-18.414619 22.605441,-20.484713 3.427242,-0.723247 60.361089,-0.970238 180.999999,-0.785216 l 176,0.269929 5.04015,2.660505 c 6.47591,3.418393 12.63595,10.128425 15.05407,16.398145 1.84873,4.793431 1.90578,10.269785 1.90578,182.941352 v 178 l -2.69469,5.1076 c -1.48207,2.80918 -4.97218,7.15527 -7.75579,9.65797 -9.36152,8.41681 7.42634,7.74304 -190.97766,7.66478 -150.72484,-0.0595 -177.256969,-0.28048 -181.252136,-1.50993 z M 203.00283,390.25 c 6.1028,-18.44127 13.66269,-56.61077 16.58762,-83.75 0.77079,-7.15192 1.98417,-12.77938 3.46852,-16.08648 8.93519,-19.90737 36.53671,-24.07801 51.55099,-7.78944 5.78126,6.27193 7.61092,11.13476 8.98343,23.87592 2.40985,22.37091 9.11955,51.16959 16.57465,71.13995 4.99988,13.39343 8.33387,19.86049 9.59079,18.60357 1.4328,-1.4328 6.24648,-26.04683 9.27603,-47.43155 3.98903,-28.15744 5.64056,-48.82328 6.25836,-78.31197 l 0.56567,-27 4.35665,-10.2594 c 9.99149,-23.52881 12.72029,-38.59143 12.81563,-70.7406 0.0762,-25.68052 -0.57224,-30.74806 -5.08734,-39.75937 -6.73343,-13.43872 -20.94711,-15.56022 -58.84148,-8.78255 -9.35,1.67231 -19.30348,3.04087 -22.11884,3.04124 -2.81536,3.7e-4 -14.51536,-1.3907 -26,-3.09127 -24.93135,-3.69167 -38.99449,-3.73322 -45.97584,-0.13582 -9.99857,5.15214 -14.24635,15.04658 -15.12362,35.22777 -1.00062,23.01893 2.49445,46.14005 11.82685,78.23882 L 186.72942,244.5 186.0704,262 c -1.01524,26.95918 1.63248,71.07775 6.1214,102 2.57028,17.7056 6.31017,34 7.80368,34 0.24344,0 1.59675,-3.4875 3.00735,-7.75 z"
     style="fill:#a0a09f" />
  <path
     inkscape:connector-curvature="0"
     id="path3715"
     d="M 75.422074,456.42042 C 69.068581,454.46524 60.553366,446.56126 57.484147,439.77011 L 55.102351,434.5 v -177 c 0,-148.80657 0.222132,-177.637142 1.394559,-181.000002 3.475429,-9.968541 12.795907,-18.414619 22.605441,-20.484713 3.427242,-0.723247 60.361089,-0.970238 180.999999,-0.785216 l 176,0.269929 5.04015,2.660505 c 6.47591,3.418393 12.63595,10.128425 15.05407,16.398145 1.84873,4.793431 1.90578,10.269785 1.90578,182.941352 v 178 l -2.69469,5.1076 c -1.48207,2.80918 -4.97218,7.15527 -7.75579,9.65797 -9.36152,8.41681 7.42634,7.74304 -190.97766,7.66478 -150.72484,-0.0595 -177.256969,-0.28048 -181.252136,-1.50993 z M 204.00283,392.25 c 6.12434,-18.50637 13.71208,-56.4213 17.00497,-84.97161 1.68414,-14.60195 3.28502,-18.9022 9.26193,-24.87911 7.39532,-7.39532 19.71456,-10.17441 30.80701,-6.94975 10.61282,3.08523 20.51274,15.61194 20.53103,25.97861 0.0111,6.31985 4.0896,30.56387 7.43051,44.17002 5.919,24.10569 17.01604,53.40184 20.22798,53.40184 1.87506,0 2.75614,-2.63424 5.7263,-17.12043 6.67501,-32.55566 10.6273,-69.9976 11.49308,-108.87957 l 0.65688,-29.5 3.6141,-8.03503 c 4.82018,-10.71644 9.46615,-25.44768 11.58757,-36.74141 2.59679,-13.8244 2.54594,-60.64436 -0.0752,-69.22587 -3.77127,-12.34709 -10.76806,-18.57455 -23.02831,-20.49624 -8.31302,-1.30299 -13.03416,-0.87388 -40.47452,3.67881 l -21.33615,3.53992 -22.66385,-3.28598 c -36.70133,-5.32125 -47.46829,-4.55524 -56.22745,4.00028 -5.96616,5.82744 -8.59541,12.82493 -9.85706,26.23349 -2.05954,21.88856 1.69868,49.97675 11.05064,82.59019 l 4.98486,17.38388 0.31466,35.67898 c 0.39301,44.56389 3.521,79.71357 9.53792,107.17898 3.67949,16.79573 5.53607,18.02583 9.43307,6.25 z"
     style="fill:#478bfd" />
  <path
     inkscape:connector-curvature="0"
     id="path3713"
     d="m 76.553992,456.845 c -1.951597,-0.52157 -4.876597,-2.04618 -6.5,-3.38803 l -2.951641,-2.43972 5,2.24138 5,2.24137 H 256.60459 436.10682 l 5.46154,-2.70289 c 3.00385,-1.48659 5.59949,-2.56494 5.7681,-2.39634 0.56022,0.56022 -7.18062,5.24042 -10.63333,6.42903 -4.30898,1.48339 -354.600144,1.49817 -360.149138,0.0152 z M 195.32453,409.99611 c -5.26748,-4.1434 -8.75079,-15.46867 -12.60918,-40.99611 -4.90796,-32.47152 -7.78987,-78.0811 -6.71952,-106.3444 l 0.63791,-16.8444 -3.45959,-11.6556 C 164.0731,203.49349 160.69487,184.97228 159.92191,161.5 c -0.91502,-27.78661 2.71805,-41.76397 13.39094,-51.51839 10.87559,-9.93968 22.79927,-11.076085 60.91474,-5.80558 l 23.12523,3.1977 19.37477,-3.33329 c 36.73208,-6.31949 51.88899,-5.227687 62.7292,4.5186 11.55169,10.38596 14.61916,23.20688 13.86266,57.94096 -0.67903,31.17774 -3.64726,46.88646 -12.93802,68.47186 L 336.28034,244.5 335.53692,272 c -0.83289,30.80903 -2.60105,51.63213 -7.00536,82.5 -4.33582,30.38785 -9.57221,52.29897 -13.22257,55.3285 -5.63385,4.67568 -11.67508,0.28641 -18.20264,-13.22516 C 285.9474,373.50515 276.12218,335.85575 273.07106,304.50211 271.70258,290.43956 264.27458,283 251.60235,283 c -12.49018,0 -19.98026,7.34632 -21.41097,21 -3.53021,33.68992 -13.68908,82.40306 -20.49677,98.28477 -3.88644,9.06668 -9.09423,11.86132 -14.37008,7.71134 z m 8.6783,-17.74611 c 6.12434,-18.50637 13.71208,-56.4213 17.00497,-84.97161 1.68414,-14.60195 3.28502,-18.9022 9.26193,-24.87911 7.39532,-7.39532 19.71456,-10.17441 30.80701,-6.94975 10.61282,3.08523 20.51274,15.61194 20.53103,25.97861 0.0111,6.31985 4.0896,30.56387 7.43051,44.17002 5.919,24.10569 17.01604,53.40184 20.22798,53.40184 1.87506,0 2.75614,-2.63424 5.7263,-17.12043 6.67501,-32.55566 10.6273,-69.9976 11.49308,-108.87957 l 0.65688,-29.5 3.6141,-8.03503 c 4.82018,-10.71644 9.46615,-25.44768 11.58757,-36.74141 2.59679,-13.8244 2.54594,-60.64436 -0.0752,-69.22587 -3.77127,-12.34709 -10.76806,-18.57455 -23.02831,-20.49624 -8.31302,-1.30299 -13.03416,-0.87388 -40.47452,3.67881 l -21.33615,3.53992 -22.66385,-3.28598 c -36.70133,-5.32125 -47.46829,-4.55524 -56.22745,4.00028 -5.96616,5.82744 -8.59541,12.82493 -9.85706,26.23349 -2.05954,21.88856 1.69868,49.97675 11.05064,82.59019 l 4.98486,17.38388 0.31466,35.67898 c 0.39301,44.56389 3.521,79.71357 9.53792,107.17898 3.67949,16.79573 5.53607,18.02583 9.43307,6.25 z"
     style="fill:#386cc4" />
  <path
     inkscape:connector-curvature="0"
     id="path3711"
     d="m 194.74887,406.51409 c -3.64896,-4.15593 -5.39695,-9.64111 -8.63257,-27.08897 -5.54932,-29.92431 -8.69565,-70.62581 -8.49748,-109.92512 l 0.1311,-26 -4.077,-14 c -8.8373,-30.34641 -12.0208,-49.67348 -12.05105,-73.16203 -0.0224,-17.41899 1.5683,-27.57981 5.60998,-35.834 5.09356,-10.40242 13.41529,-15.79802 27.02737,-17.52386 8.74774,-1.1091 9.11966,-1.07991 40.43262,3.17371 l 22.58949,3.06861 21.91051,-3.73275 c 33.07992,-5.635599 46.84451,-5.02869 57.27241,2.52524 12.55966,9.09817 16.86637,27.60036 15.12642,64.98508 -1.2271,26.36552 -4.69593,42.77899 -13.36528,63.2406 -3.93553,9.28875 -4.30188,10.84102 -3.87214,16.40687 0.60531,7.83972 -1.397,49.28731 -3.32623,68.85253 -2.90428,29.45379 -8.30681,62.07087 -12.86638,77.67918 -4.25781,14.57529 -10.48905,14.26801 -18.32462,-0.90366 -10.90282,-21.11063 -20.96215,-57.69085 -24.57221,-89.35547 -1.59696,-14.00732 -2.72458,-16.93747 -8.54005,-22.1914 -10.12769,-9.14976 -27.94358,-6.71372 -34.65505,4.73854 -2.16947,3.70192 -2.97518,7.44851 -4.99422,23.22342 -2.60157,20.32628 -6.21335,40.932 -9.95758,56.80939 -2.63493,11.17344 -8.02768,28.59653 -10.10738,32.65526 -3.50449,6.83935 -7.62986,7.63303 -12.26066,2.35883 z M 204.45501,390.75 c 6.17523,-19.38556 12.16154,-49.1135 16.13646,-80.13341 2.26161,-17.64936 3.9035,-22.47365 9.49768,-27.90666 11.43968,-11.11007 29.78444,-11.56518 41.50251,-1.02963 6.99712,6.29101 8.93931,11.0458 10.65396,26.08254 3.38019,29.64287 11.46893,60.24667 22.02994,83.35043 3.74066,8.18325 5.70976,9.63985 7.31696,5.41258 3.14144,-8.26262 9.67916,-48.76458 12.49688,-77.41974 1.97297,-20.06434 3.76768,-61.19247 2.95481,-67.7134 -0.52576,-4.21771 -0.16833,-6.22075 2.05208,-11.5 5.50825,-13.09638 10.53506,-28.20071 12.69439,-38.1435 2.00165,-9.21676 2.23019,-13.12015 2.26877,-38.74921 0.0409,-27.15082 -0.0653,-28.81298 -2.24249,-35.11135 -1.25696,-3.63624 -3.82489,-8.4099 -5.7065,-10.60814 -8.48954,-9.91811 -20.95468,-10.98348 -56.72663,-4.84829 l -21.71853,3.72491 -22.28147,-3.22402 c -24.71181,-3.57567 -39.61585,-4.20642 -47.22619,-1.99863 -6.7559,1.95991 -13.62395,8.74729 -16.35192,16.15986 -7.43191,20.1944 -4.18815,57.51015 8.86964,102.03491 l 3.99705,13.62926 0.34412,36.37074 c 0.34701,36.67711 0.98326,47.17604 4.62814,76.37075 2.03916,16.3332 5.87633,36.80838 7.82419,41.75 1.9915,5.05231 3.85997,3.31386 6.98615,-6.5 z"
     style="fill:#1a1f26" />
</svg>
